{
  "accessors": [
    {
      "bufferView": 3,
      "componentType": 5126,
      "count": 380,
      "max": [
        11.943660736083984,
        6.834417343139648,
        3.322894811630249
      ],
      "min": [
        -24.109323501586914,
        0.012504936195909977,
        -3.316601276397705
      ],
      "type": "VEC3"
    },
    {
      "bufferView": 3,
      "byteOffset": 4560,
      "componentType": 5126,
      "count": 380,
      "max": [
        0.9916166663169861,
        0.9997239112854004,
        0.9989226460456848
      ],
      "min": [
        -0.995200514793396,
        -0.9998772144317627,
        -0.9989226460456848
      ],
      "type": "VEC3"
    },
    {
      "bufferView": 2,
      "componentType": 5126,
      "count": 380,
      "max": [
        0.9917808771133423,
        0.9913625121116638
      ],
      "min": [
        0.008300123736262321,
        0.0157812237739563
      ],
      "type": "VEC2"
    },
    {
      "bufferView": 1,
      "componentType": 5125,
      "count": 1590,
      "type": "SCALAR"
    },
    {
      "bufferView": 5,
      "componentType": 5126,
      "count": 6,
      "max": [
        1.0,
        0.0,
        0.0,
        0.0,
        0.0,
        1.0,
        1.0,
        0.0,
        0.0,
        0.0,
        1.0,
        0.0,
        10.605552673339844,
        0.0,
        0.0,
        1.0
      ],
      "min": [
        1.0,
        0.0,
        0.0,
        0.0,
        0.0,
        6.123234262925839e-17,
        0.0,
        0.0,
        0.0,
        -1.0,
        6.123234262925839e-17,
        0.0,
        -7.189172744750977,
        -3.6496682992563396e-16,
        -5.960360527038574,
        1.0
      ],
      "type": "MAT4"
    },
    {
      "bufferView": 0,
      "componentType": 5123,
      "count": 380,
      "type": "VEC4"
    },
    {
      "bufferView": 4,
      "componentType": 5126,
      "count": 380,
      "max": [
        1.0,
        0.5,
        0.20000000298023224,
        0.0
      ],
      "min": [
        0.4000000059604645,
        0.0,
        0.0,
        0.0
      ],
      "type": "VEC4"
    }
  ],
  "asset": {
    "extras": {
      "author": "Bylan (https://sketchfab.com/Bylan)",
      "license": "CC-BY-4.0 (http://creativecommons.org/licenses/by/4.0/)",
      "source": "https://sketchfab.com/3d-models/halo-3-the-god-rat-e1853357d88545c9ab33e069641bc65c",
      "title": "(Halo 3) The God Rat"
    },
    "generator": "Sketchfab-13.68.0",
    "version": "2.0"
  },
  "bufferViews": [
    {
      "buffer": 0,
      "byteLength": 3040,
      "byteStride": 8,
      "name": "shortBufferViews",
      "target": 34962
    },
    {
      "buffer": 0,
      "byteLength": 6360,
      "byteOffset": 3040,
      "name": "floatBufferViews",
      "target": 34963
    },
    {
      "buffer": 0,
      "byteLength": 3040,
      "byteOffset": 9400,
      "byteStride": 8,
      "name": "floatBufferViews",
      "target": 34962
    },
    {
      "buffer": 0,
      "byteLength": 9120,
      "byteOffset": 12440,
      "byteStride": 12,
      "name": "floatBufferViews",
      "target": 34962
    },
    {
      "buffer": 0,
      "byteLength": 6080,
      "byteOffset": 21560,
      "byteStride": 16,
      "name": "floatBufferViews",
      "target": 34962
    },
    {
      "buffer": 0,
      "byteLength": 384,
      "byteOffset": 27640,
      "name": "floatBufferViews"
    }
  ],
  "buffers": [
    {
      "byteLength": 28024,
      "uri": "scene.bin"
    }
  ],
  "images": [
    {
      "uri": "textures/material_baseColor.png"
    }
  ],
  "materials": [
    {
      "doubleSided": true,
      "name": "material",
      "pbrMetallicRoughness": {
        "baseColorTexture": {
          "index": 0
        },
        "metallicFactor": 0.0,
        "roughnessFactor": 0.8929713596497552
      }
    }
  ],
  "meshes": [
    {
      "name": "rat:base_rat_0",
      "primitives": [
        {
          "attributes": {
            "JOINTS_0": 5,
            "NORMAL": 1,
            "POSITION": 0,
            "TEXCOORD_0": 2,
            "WEIGHTS_0": 6
          },
          "indices": 3,
          "material": 0,
          "mode": 4
        }
      ]
    }
  ],
  "nodes": [
    {
      "children": [
        1
      ],
      "matrix": [
        1.0,
        0.0,
        0.0,
        0.0,
        0.0,
        2.220446049250313e-16,
        -1.0,
        0.0,
        0.0,
        1.0,
        2.220446049250313e-16,
        0.0,
        0.0,
        0.0,
        0.0,
        1.0
      ],
      "name": "Sketchfab_model"
    },
    {
      "children": [
        2
      ],
      "matrix": [
        0.02539999969303608,
        0.0,
        0.0,
        0.0,
        0.0,
        0.0,
        0.02539999969303608,
        0.0,
        0.0,
        -0.02539999969303608,
        0.0,
        0.0,
        0.0,
        0.0,
        0.0,
        1.0
      ],
      "name": "rat.fbx"
    },
    {
      "children": [
        3
      ],
      "name": "RootNode"
    },
    {
      "children": [
        4,
        6,
        5
      ],
      "name": "Object_3"
    },
    {
      "children": [
        7
      ],
      "name": "_rootJoint"
    },
    {
      "matrix": [
        1.0,
        0.0,
        0.0,
        0.0,
        0.0,
        6.123233995736766e-17,
        -1.0,
        0.0,
        0.0,
        1.0,
        6.123233995736766e-17,
        0.0,
        0.0,
        0.0,
        0.0,
        1.0
      ],
      "name": "Object_5"
    },
    {
      "mesh": 0,
      "name": "Object_6",
      "skin": 0
    },
    {
      "children": [
        8,
        10
      ],
      "name": "rat_00",
      "rotation": [
        -0.7071068286895752,
        -0.0,
        0.0,
        0.7071068286895752
      ]
    },
    {
      "children": [
        9
      ],
      "name": "back_01",
      "translation": [
        -3.615041732788086,
        0.0,
        5.960360527038574
      ]
    },
    {
      "name": "tail_02",
      "translation": [
        -6.990510940551758,
        0.0,
        -3.3272736072540283
      ]
    },
    {
      "children": [
        11
      ],
      "name": "front_03",
      "translation": [
        3.4249160289764404,
        0.0,
        4.71862268447876
      ]
    },
    {
      "name": "head_04",
      "translation": [
        3.764256715774536,
        -2.465190328815662e-32,
        -1.674942970275879
      ]
    }
  ],
  "samplers": [
    {
      "magFilter": 9729,
      "minFilter": 9987,
      "wrapS": 10497,
      "wrapT": 10497
    }
  ],
  "scene": 0,
  "scenes": [
    {
      "name": "Sketchfab_Scene",
      "nodes": [
        0
      ]
    }
  ],
  "skins": [
    {
      "inverseBindMatrices": 4,
      "joints": [
        4,
        7,
        8,
        9,
        10,
        11
      ],
      "skeleton": 4
    }
  ],
  "textures": [
    {
      "sampler": 0,
      "source": 0
    }
  ]
}
